<?xml version="1.0" encoding="iso-8859-1"?>
<!-- Generator: Adobe Illustrator 19.0.0, SVG Export Plug-In . SVG Version: 6.00 Build 0)  -->
<svg version="1.1" id="Layer_1" xmlns="http://www.w3.org/2000/svg" xmlns:xlink="http://www.w3.org/1999/xlink" x="0px" y="0px"
	 viewBox="0 0 512 512" style="enable-background:new 0 0 512 512;" xml:space="preserve">
<path style="fill:#90B5BF;" d="M296.421,191.326v129.347H123.958c-11.906,0-21.558-9.651-21.558-21.558V191.326
	c0-35.718,28.955-64.674,64.674-64.674h64.674C267.466,126.653,296.421,155.608,296.421,191.326z"/>
<path style="fill:#769CA5;" d="M199.411,320.674h-75.453c-11.906,0-21.558-9.651-21.558-21.558V191.326
	c0-35.718,28.955-64.674,64.674-64.674h32.337V320.674z"/>
<path style="fill:#F4C064;" d="M296.421,331.453c0,11.906-9.651,21.558-21.558,21.558l0,0c-11.906,0-21.558-9.651-21.558-21.558
	V223.663c0-5.953,4.826-10.779,10.779-10.779h32.337V331.453z"/>
<path style="fill:#EFDDAB;" d="M493.137,503.916h-409.6c-35.718,0-64.674-28.956-64.674-64.674V331.453
	c0-5.953,4.826-10.779,10.779-10.779h463.495c5.953,0,10.779,4.826,10.779,10.779v161.684
	C503.916,499.09,499.09,503.916,493.137,503.916z"/>
<path style="fill:#C1B291;" d="M471.579,353.01L471.579,353.01c0,29.765-24.13,53.895-53.895,53.895H245.221
	c-29.765,0-53.895-24.13-53.895-53.895l0,0c0-29.765,24.13-53.895,53.895-53.895h172.463
	C447.449,299.116,471.579,323.246,471.579,353.01z"/>
<path style="fill:#A89B80;" d="M471.579,353.01L471.579,353.01H320.674v-53.895h97.011
	C447.449,299.116,471.579,323.246,471.579,353.01z"/>
<path style="fill:#FFE702;" d="M358.825,237.747l59.758,98.911c4.341,7.184-0.833,16.353-9.226,16.353H254.235
	c-8.538,0-13.687-9.454-9.054-16.626l64.182-99.379c5.372-8.318,14.598-13.342,24.499-13.342l0,0
	C344.075,223.663,353.543,229.005,358.825,237.747z"/>
<path style="fill:#FFFF63;" d="M409.357,353.01h-56.363c8.394,0,13.566-9.169,9.226-16.353l-56.654-93.774l3.797-5.879
	c5.372-8.318,14.598-13.342,24.499-13.342l0,0c10.213,0,19.681,5.342,24.963,14.083l59.758,98.911
	C422.924,343.842,417.751,353.01,409.357,353.01z"/>
<path style="fill:#F4C064;" d="M242.526,51.2c0,23.812-19.304,43.116-43.116,43.116S156.295,75.012,156.295,51.2
	s19.304-43.116,43.116-43.116S242.526,27.388,242.526,51.2z M199.411,288.337h-53.895v-64.674c0-5.953-4.826-10.779-10.779-10.779
	H102.4v97.011c0,11.906,9.651,21.558,21.558,21.558h75.453c11.906,0,21.558-9.651,21.558-21.558l0,0
	C220.968,297.988,211.317,288.337,199.411,288.337z"/>
<path style="fill:#F4AB53;" d="M199.411,8.084v86.232c-23.812,0-43.116-19.304-43.116-43.116S175.599,8.084,199.411,8.084z"/>
<path style="fill:#99774F;" d="M8.084,396.126h118.568l-18.091,90.459c-2.016,10.076-10.863,17.33-21.14,17.33H47.315
	c-10.277,0-19.124-7.253-21.14-17.33L8.084,396.126z"/>
<path style="fill:#7F5D3B;" d="M51.2,396.126l18.091,90.459c1.916,9.58,10.01,16.594,19.635,17.264
	c-0.499,0.034-0.998,0.066-1.505,0.066H47.315c-10.277,0-19.124-7.253-21.14-17.33L8.084,396.126H51.2z"/>
<path style="fill:#C69F75;" d="M105.095,417.684H29.642c-11.906,0-21.558-9.651-21.558-21.558l0,0
	c0-11.906,9.651-21.558,21.558-21.558h75.453c11.906,0,21.558,9.651,21.558,21.558l0,0
	C126.653,408.033,117.001,417.684,105.095,417.684z"/>
<path d="M503.916,312.589h-39.307c-11.374-13.186-28.185-21.558-46.925-21.558h-17.223l-34.719-57.466
	c-6.701-11.095-18.918-17.987-31.881-17.987c-11.59,0-22.329,5.315-29.356,14.347v-38.599c0-40.119-32.639-72.758-72.758-72.758
	h-64.674c-40.119,0-72.758,32.639-72.758,72.758v118.568c0,0.909,0.047,1.807,0.128,2.695H8.084c-4.466,0-8.084,3.62-8.084,8.084
	s3.618,8.084,8.084,8.084h93.026c5.441,6.579,13.663,10.779,22.848,10.779h60.765c-0.974,4.391-1.481,8.893-1.481,13.474
	c0,34.176,27.803,61.979,61.979,61.979h172.463c34.176,0,61.979-27.803,61.979-61.979c0-8.603-1.765-16.799-4.946-24.253h29.199
	c4.466,0,8.084-3.62,8.084-8.084S508.382,312.589,503.916,312.589z M110.484,309.895V191.326c0-31.204,25.387-56.589,56.589-56.589
	h64.674c31.203,0,56.589,25.385,56.589,56.589v63.334l-23.491,36.371h-19.625c-6.975,0-13.917,1.213-20.47,3.498
	c-5.205-8.553-14.617-14.277-25.34-14.277H153.6v-67.368c0-4.465-3.618-8.084-8.084-8.084c-4.466,0-8.084,3.62-8.084,8.084v75.453
	c0,4.465,3.618,8.084,8.084,8.084h53.895c7.43,0,13.474,6.044,13.474,13.474s-6.044,13.474-13.474,13.474h-75.453
	C116.528,323.368,110.484,317.325,110.484,309.895z M417.684,398.821H245.221c-25.26,0-45.811-20.55-45.811-45.811
	c0-4.652,0.69-9.19,2.042-13.552c15.316-1.048,27.471-13.777,27.595-29.325c5.137-1.947,10.557-2.934,16.175-2.934h9.184
	l-16.015,24.798c-3.75,5.807-4.025,13.185-0.719,19.256c3.306,6.071,9.654,9.841,16.565,9.841h98.774
	c4.466,0,8.084-3.62,8.084-8.084s-3.618-8.084-8.084-8.084h-98.776c-1.393,0-2.08-0.881-2.366-1.406s-0.652-1.581,0.102-2.751
	l64.183-99.379c3.899-6.038,10.519-9.644,17.709-9.644c7.336,0,14.25,3.901,18.043,10.18l59.757,98.911
	c0.708,1.173,0.33,2.206,0.041,2.718c-0.289,0.512-0.978,1.37-2.347,1.37h-23.741c-4.466,0-8.084,3.62-8.084,8.084
	s3.618,8.084,8.084,8.084h23.741c6.896,0,13.039-3.586,16.428-9.593c3.39-6.008,3.283-13.119-0.285-19.024L410.231,307.2h7.454
	c25.26,0,45.811,20.55,45.811,45.811C463.495,378.271,442.945,398.821,417.684,398.821z M199.411,102.4
	c28.231,0,51.2-22.969,51.2-51.2S227.642,0,199.411,0s-51.2,22.969-51.2,51.2S171.179,102.4,199.411,102.4z M199.411,16.168
	c19.317,0,35.032,15.716,35.032,35.032s-15.715,35.032-35.032,35.032S164.379,70.516,164.379,51.2S180.094,16.168,199.411,16.168z
	 M245.221,256v-43.116c0-4.465,3.618-8.084,8.084-8.084c4.466,0,8.084,3.62,8.084,8.084V256c0,4.465-3.618,8.084-8.084,8.084
	C248.84,264.084,245.221,260.465,245.221,256z M334.147,158.989V40.421c0-4.465,3.618-8.084,8.084-8.084s8.084,3.62,8.084,8.084
	v118.568c0,4.465-3.618,8.084-8.084,8.084S334.147,163.454,334.147,158.989z M377.263,191.326V83.537
	c0-4.465,3.618-8.084,8.084-8.084s8.084,3.62,8.084,8.084v107.789c0,4.465-3.618,8.084-8.084,8.084S377.263,195.791,377.263,191.326
	z M186.798,495.832H113.81c1.214-2.367,2.13-4.918,2.671-7.622l16.924-82.555c0.086-0.419,0.127-0.836,0.147-1.251
	c0.766-2.629,1.185-5.405,1.185-8.277c0-16.345-13.298-29.642-29.642-29.642H29.641C13.298,366.484,0,379.781,0,396.126
	c0,3.242,0.53,6.361,1.497,9.284c0.027,0.248,0.061,0.496,0.112,0.745l16.639,82.017C21.01,501.979,33.235,512,47.315,512h25.443
	h14.664h99.377c4.466,0,8.084-3.62,8.084-8.084S191.263,495.832,186.798,495.832z M29.642,382.653h75.453
	c7.43,0,13.474,6.044,13.474,13.474c0,7.43-6.044,13.474-13.474,13.474H29.642c-7.43,0-13.474-6.044-13.474-13.474
	C16.168,388.696,22.212,382.653,29.642,382.653z M72.758,495.832H47.315c-6.401,0-11.957-4.555-13.217-10.853l-12.222-60.249
	c2.477,0.674,5.079,1.039,7.766,1.039h75.453c2.737,0,5.385-0.38,7.902-1.078L100.633,485c-1.256,6.277-6.811,10.832-13.212,10.832
	H72.758z"/>
<g>
</g>
<g>
</g>
<g>
</g>
<g>
</g>
<g>
</g>
<g>
</g>
<g>
</g>
<g>
</g>
<g>
</g>
<g>
</g>
<g>
</g>
<g>
</g>
<g>
</g>
<g>
</g>
<g>
</g>
</svg>
