<?xml version="1.0" encoding="iso-8859-1"?>
<!-- Generator: Adobe Illustrator 19.0.0, SVG Export Plug-In . SVG Version: 6.00 Build 0)  -->
<svg version="1.1" id="Capa_1" xmlns="http://www.w3.org/2000/svg" xmlns:xlink="http://www.w3.org/1999/xlink" x="0px" y="0px"
	 viewBox="0 0 512 512" style="enable-background:new 0 0 512 512;" xml:space="preserve">
<g>
	<path style="fill:#414B82;" d="M329.915,498.428c-10.724-2.378-17.49-12.999-15.111-23.723l17.432-78.606l-27.951-66.139
		c-4.276-10.119,0.46-21.787,10.578-26.062c10.117-4.275,21.786,0.46,26.062,10.578l30.421,71.988
		c1.608,3.804,1.991,8.016,1.097,12.048l-18.807,84.805C351.267,494.011,340.665,500.813,329.915,498.428z"/>
	<path style="fill:#414B82;" d="M280.201,512c-11.032,0-19.975-8.943-19.975-19.975V332.362c0-11.032,8.943-19.975,19.975-19.975
		c11.032,0,19.975,8.943,19.975,19.975v159.663C300.176,503.057,291.233,512,280.201,512z"/>
</g>
<path style="fill:#252D5C;" d="M275.587,172.476l-57.138-18.817l-36.106-58.384c-4.815-7.785-15.028-10.193-22.815-5.379
	c-7.785,4.815-10.193,15.029-5.378,22.815l39.284,63.523c2.053,3.32,5.211,5.808,8.919,7.027l57.873,19.033v130.067h44.085h44.085
	V172.48C299.695,172.462,333.886,172.535,275.587,172.476z"/>
<path style="fill:#1B224A;" d="M440.97,48.212c-8.114-4.233-18.126-1.09-22.362,7.025l-42.004,80.484l-46.263,36.755h-17.079h-8.95
	v159.885h44.085V200.468l51.583-40.981c1.816-1.443,3.31-3.252,4.384-5.309l43.632-83.604
	C452.231,62.459,449.085,52.447,440.97,48.212z"/>
<circle style="fill:#BA6746;" cx="304.303" cy="127.359" r="34.499"/>
<polygon style="fill:#FFFFFF;" points="278.907,172.476 304.309,239.135 329.71,172.476 "/>
<path style="fill:#FF3C3C;" d="M316.069,199.922c0.317-1.587,0.064-3.234-0.715-4.651l-5.67-10.313l4.891-8.895
	c0.885-1.608-0.281-3.587-2.119-3.587h-16.302c-1.835,0-3.004,1.977-2.119,3.587l4.907,8.925l-5.655,10.284
	c-0.779,1.417-1.032,3.063-0.716,4.649l3.533,17.681l8.206,21.533l8.235-21.61L316.069,199.922z"/>
<g>
	<path style="fill:#FFFFFF;" d="M157.788,118.594l28.438-17.037l-3.883-6.28c-4.815-7.786-15.028-10.193-22.815-5.379
		c-7.785,4.815-10.193,15.028-5.378,22.815L157.788,118.594z"/>
	<path style="fill:#FFFFFF;" d="M444.538,77.198l3.457-6.624c4.235-8.116,1.09-18.127-7.025-22.362
		c-8.114-4.233-18.126-1.09-22.362,7.025l-3.406,6.527L444.538,77.198z"/>
</g>
<g>
	<path style="fill:#BA6746;" d="M182.343,95.277c-4.815-7.786-15.028-10.193-22.815-5.379c-7.785,4.815-10.193,15.028-5.378,22.815
		L182.343,95.277z"/>
	<path style="fill:#BA6746;" d="M447.995,70.573c4.235-8.116,1.09-18.127-7.025-22.362c-8.114-4.233-18.126-1.09-22.362,7.025
		L447.995,70.573z"/>
</g>
<path style="fill:#59250F;" d="M151.661,123.518c-1.87,0-3.739-0.726-5.145-2.173l-24.689-25.38c-1.328-1.365-2.059-3.2-2.032-5.103
	c0.026-1.903,0.808-3.719,2.173-5.045l26.409-25.689c2.841-2.764,7.385-2.701,10.148,0.141l24.689,25.38
	c1.328,1.365,2.059,3.2,2.032,5.103c-0.027,1.903-0.808,3.719-2.173,5.045l-26.409,25.689
	C155.27,122.842,153.464,123.518,151.661,123.518z M137.121,91.101l14.68,15.091l16.12-15.68l-14.68-15.091L137.121,91.101z"/>
<path style="fill:#80391B;" d="M106.52,124.77L65.004,82.092c-3.921-4.032-3.832-10.479,0.199-14.4l66.625-64.809
	c4.032-3.921,10.479-3.832,14.4,0.198l41.514,42.678c3.921,4.032,3.832,10.479-0.199,14.4l-66.624,64.808
	C116.888,128.89,110.441,128.801,106.52,124.77z"/>
<g>
</g>
<g>
</g>
<g>
</g>
<g>
</g>
<g>
</g>
<g>
</g>
<g>
</g>
<g>
</g>
<g>
</g>
<g>
</g>
<g>
</g>
<g>
</g>
<g>
</g>
<g>
</g>
<g>
</g>
</svg>
